<svg xmlns="http://www.w3.org/2000/svg" viewBox="0 0 142.243 142.806"><path fill="#2e94df" d="M63.214 142.426c-16.615-1.813-31.598-9.3-43.738-21.855-2.185-2.26-6.965-8.302-8.246-10.424-2.134-3.535-5.109-9.051-5.109-9.475 0-.088-.31-.848-.688-1.69-1.184-2.625-2.006-5.044-3.13-9.2C-.72 78.583-.77 64.875 2.174 53.316c1.474-5.79 5.032-14.27 7.821-18.64.49-.767.89-1.444.89-1.505 0-.06.555-.921 1.233-1.913 5.166-7.553 13.696-15.82 21.064-20.413C42.812 4.842 53.393 1.238 64.43.202c4.202-.395 13.255-.184 16.965.396 5.999.936 12.279 2.664 16.934 4.658 3.095 1.326 6.602 3.019 7.98 3.851.46.278 1.412.85 2.116 1.27 4.365 2.606 10.281 7.41 14.245 11.57 3.313 3.475 5.38 6.087 8.126 10.266 5.106 7.77 8.587 16.265 10.256 25.025 1.107 5.806 1.193 6.83 1.19 14.155-.002 8.86-.475 12.37-2.764 20.505-1.216 4.322-4.071 11.066-6.226 14.705-.553.935-1.136 1.937-1.296 2.228-.618 1.127-3.652 5.392-5.281 7.423-3.85 4.798-6.816 7.711-11.803 11.59-7.283 5.663-15.259 9.7-24.613 12.455-7.522 2.216-18.39 3.071-27.045 2.127z"/><path fill="#fffff7" d="M81.395 140.61c14.142-2.262 26.575-8.243 36.962-17.781 2.244-2.061 4.496-4.517 7.906-8.624 2.105-2.534 6.024-8.76 7.297-11.591 1.079-2.4 1.77-3.893 2.085-4.502.443-.86 2.389-6.73 3.023-9.124 2.907-10.966 2.949-23.562.116-34.925-.45-1.806-1.856-6.22-2.358-7.409a61.567 61.567 0 0 1-.746-1.884c-1.602-4.26-5.563-11.186-8.907-15.578-4.84-6.355-10.825-11.979-17.067-16.037a4351.83 4351.83 0 0 1-2.758-1.794c-5.447-3.549-14.368-7.02-22.113-8.602-6.015-1.23-15.12-1.656-20.902-.978-5.274.618-13.619 2.558-16.644 3.869-.45.195-1.771.735-2.935 1.2-2.59 1.033-6.422 2.934-8.202 4.069-.728.463-1.937 1.21-2.686 1.66-3.92 2.348-10.588 8.006-13.713 11.635a555.071 555.071 0 0 1-2.826 3.258c-2.842 3.234-7.549 11.123-10.103 16.933-3.565 8.108-5.821 20.688-5.34 29.766 1.117 21.036 10.512 39.401 26.73 52.253 10.097 8 22.03 12.862 35.719 14.552 2.942.363 14.405.123 17.462-.366z"/><path fill="#2e94df" d="M65.256 136.051c-8.279-.872-15.685-2.974-22.622-6.42-3.82-1.897-4.944-2.568-9.361-5.586-1.947-1.33-4.962-3.957-7.872-6.86-6.698-6.68-11.555-14.318-14.986-23.567-1.463-3.945-1.965-5.722-2.725-9.657-.573-2.968-.639-4.101-.238-4.101.15 0 1.548.446 3.108.992 2.653.927 3.027.99 5.748.962 1.84-.018 4.833-.335 8.136-.86 6.416-1.02 10.45-1.096 15.015-.287 5.96 1.057 6.476 1.105 10.577.973 3.826-.123 4.305-.197 6.997-1.088 3.338-1.106 3.897-1.153 4.928-.419 1.71 1.218 4.918 2.408 8.64 3.204 2.07.443 3.958.588 9.378.721 9.028.222 8.932.136 6.557 5.905a306.513 306.513 0 0 1-1.75 4.184c-.224.51-.502 1.521-.617 2.249-.546 3.44-.903 4.693-1.437 5.036-.493.318-2.381.877-6.163 1.823-1.53.382-1.756.295-2.551-.988l-.461-.744-6.267.053-6.268.052-.167-.764c-.092-.42-.188-1.835-.213-3.145-.083-4.214-.096-4.245-2.763-6.281-2.324-1.775-3.399-2.175-3.704-1.38-.104.271.413.969 1.541 2.08 2.228 2.196 2.602 3.1 2.47 5.978-.089 1.949-.224 2.476-1.014 3.95-.502.935-1.243 1.944-1.648 2.24-.943.692-3.836.885-6.296.42-1.607-.303-1.862-.288-2.776.166-1.497.743-2.098 2.1-2.098 4.733 0 2.51.561 3.88 1.984 4.84.742.502 1.133.594 1.971.461 1.263-.2 1.703-.535 2.173-1.658.362-.867 1.291-1.334 2.065-1.037.214.082.555.541.76 1.02.437 1.033 1.177 1.82 3.06 3.253 6.218 4.738 8.236 6.7 10.247 9.96.417.677 1.507 2.194 2.422 3.372 1.678 2.16 2.677 2.811 3.317 2.162.24-.243.143-.439-.417-.85-.502-.367-.727-.769-.727-1.296 0-.616-.273-.965-1.41-1.805-1.078-.796-1.522-1.343-1.89-2.323-.81-2.165-2.4-4.658-4.221-6.626-1.878-2.028-2.2-3.021-1.256-3.876.622-.562 1.457-.548 4.544.076 5.314 1.074 14.707 2.118 19.843 2.207 3.274.056 2.739.27 9.68-3.878 5.237-3.129 5.68-3.56 4.63-4.512-.516-.466-.586-.458-2.327.243-4.851 1.952-7.78 2.61-11.586 2.608-3.188-.002-4.971-.372-5.887-1.22-.85-.787-.741-1.358.434-2.288.708-.561 1.082-1.1 1.2-1.731.117-.622.445-1.103 1.022-1.498 2.224-1.52 4.17-3.953 4.149-5.184-.005-.26-.183-.705-.397-.988-.232-.306-.389-1.097-.389-1.959 0-1.342.076-1.517 1.059-2.452.582-.554 1.058-1.092 1.058-1.195 0-.104.159-.376.352-.606.194-.23.57-1.01.838-1.733.268-.724.981-1.855 1.586-2.514 1.324-1.443 2.251-2.931 2.251-3.614 0-.276-.238-.946-.529-1.49-.907-1.693-.594-2.834.78-2.847.372-.003 1.39-.308 2.263-.677 1.521-.642 1.932-.682 9.871-.958 8.526-.296 10.139-.198 14.338.873.51.13 1.303.237 1.764.238.461 0 1.395.24 2.076.532 2.204.944 4.502 1.147 7.401.654 1.408-.24 2.612-.385 2.675-.322.313.314-1.672 8.527-2.893 11.97-1.55 4.369-4.417 10.363-6.264 13.096-.452.668-.75 1.116-2.026 3.043-1.33 2.01-8.257 9.888-8.934 10.162-.146.06-1.232.952-2.413 1.984-2.033 1.778-7.266 5.48-9.164 6.482-8.368 4.421-13.57 6.275-21.68 7.726-2.315.414-4.439.558-9.225.625-3.42.048-6.694.037-7.276-.024z"/><path fill="#fff" d="M107.543 107.416c2.569-.692 5.722-1.098 8.521-1.098 2.9 0 3.244-.302 3.083-2.708-.076-1.129-1.772-2.128-3.586-2.111-1.513.013-2.752.44-6.649 2.293-1.31.622-3.081 1.414-3.937 1.76-1.832.739-2.465 1.631-1.609 2.267.598.444 1.275.379 4.177-.403zM51.499 89.913c.795-.302.837-1.207.076-1.683-.352-.221-.587-.155-1.075.304-.343.322-.75.586-.905.586-.385 0-.912.67-.697.884.263.263 1.812.209 2.6-.09zM114.955 83.618c2.491-1.118 1.79-1.239-7.636-1.315-8.136-.065-9.637.04-9.042.635.097.098 2.054.39 4.348.648l5.229.59c2.502.285 5.8.026 7.1-.558z"/><path fill="#2e94df" d="M126.482 78.691c-.523-.2-1.348-.568-1.833-.819-.485-.25-1.613-.721-2.505-1.045-.893-.324-2.45-1.127-3.459-1.786-4.151-2.708-10.58-5.396-16.652-6.964-1.455-.376-2.744-.78-2.863-.899-.12-.118-.673-1.57-1.229-3.226-1.745-5.196-4.709-11.767-6.466-14.333-.378-.552-.687-1.076-.687-1.165 0-.194-1.201-1.84-3.21-4.399-2.887-3.675-7.975-8.003-12.49-10.626-1.565-.908-2.115-1.87-1.378-2.408.866-.634 3.192.336 4.758 1.984.842.885 1.215.982 1.965.514.853-.533 1.848-.047 2.67 1.303.42.687.958 1.465 1.197 1.728.591.652 1.76.487 2.152-.303.168-.34.433-.744.588-.899.425-.426 1.53.413 2.153 1.635.666 1.304.98 1.497 1.566.966.257-.233.577-.42.711-.415.348.01 2.029 1.316 3.712 2.883 1.432 1.333 1.956 1.613 1.956 1.049 0-.269-1.505-2.243-2.701-3.543-.268-.29-1.667-2.037-3.11-3.88-5.95-7.603-8.014-9.1-13.777-9.994-2.215-.344-2.455-.485-2.329-1.375.081-.57.245-.638 1.851-.758 1.528-.115 1.84-.23 2.335-.86.94-1.197 1.85-.998 3.323.728 1.355 1.586 2.089 1.82 2.899.926.922-1.02 2.607-.525 3.73 1.096.76 1.097 1.174 1.25 1.694.623.18-.218.55-.397.818-.397.908 0 3.54 1.343 4.539 2.316.772.752 1.062.896 1.31.648.401-.401-.286-1.875-2.304-4.94-2.346-3.563-4.896-5.906-8.332-7.658-3.61-1.84-9.574-2-12.769-.343-2.134 1.107-4.419 3.37-5.503 5.45-.312.599-.704 1.086-.871 1.085-.167-.002-.705-.734-1.196-1.627-1.686-3.068-4.11-4.88-7.398-5.526-4.324-.85-8.965.81-11.493 4.113-.557.728-1.543 2.4-2.19 3.717-1.643 3.338-1.555 4.61.18 2.633 1.038-1.181 1.684-1.181 2.381 0 .3.51.67.926.82.926.149 0 .733-.416 1.297-.926 1.173-1.06 1.734-1.143 2.683-.397.926.729 1.295.672 2.573-.397 1.315-1.098 2.151-1.166 3.224-.264.55.463 1.101.661 1.841.661 1.755 0 2.641.802 2.069 1.872-.225.42-.565.51-1.935.51-5.088 0-10.157 1.871-13.429 4.958-1.003.946-1.824 1.837-1.824 1.98 0 .144-.303.622-.674 1.062-1.742 2.07-3.28 6.709-4.06 12.24-.45 3.192-.657 8.506-.34 8.702.456.282.84-.747.847-2.268.003-.813.221-1.882.516-2.531.427-.942.633-1.125 1.267-1.125.415 0 .987.175 1.27.389.282.213.721.392.976.397.401.007.463-.264.467-2.042.006-3.126.892-4.382 2.337-3.313.75.554.79.557 1.214.09.241-.266.628-1.518.86-2.782.232-1.263.626-2.55.876-2.857.417-.516.523-.532 1.323-.2.81.335.904.318 1.362-.246.278-.345.49-1.026.49-1.577 0-1.943 1.212-2.603 3.357-1.828.845.306.924.276 2.003-.763.617-.594 1.383-1.214 1.7-1.376.935-.478 3.26-.33 3.26.208 0 .1-.887.632-1.97 1.182-4.612 2.342-6.5 6.452-6.496 14.142.003 4.144.281 7.19.657 7.19.34 0 .93-1.669.93-2.627 0-1.405 1.324-2.162 2.116-1.209.18.219.529.397.773.397.878 0 1.079-.58 1.079-3.113 0-1.363.123-2.708.274-2.99.313-.584 1.325-.674 2.106-.186.787.491 1.308-.203 1.755-2.338.519-2.474.91-3.014 2.189-3.014.56 0 1.156-.165 1.322-.365.167-.2.376-1.362.465-2.58.185-2.532.539-3.14 1.828-3.14 1.118 0 2.865 1.35 6.333 4.891 2.987 3.051 5.185 6.147 7.189 10.125 2.169 4.305 3.94 10.338 4.233 14.421l.167 2.318-1.055 1.004c-.96.914-1.325 1.059-4.075 1.622-3.139.643-10.475 2.745-12.859 3.686-.755.297-2.372 1.007-3.593 1.576-1.444.673-3.372 1.278-5.507 1.728-1.939.408-4.208 1.1-5.535 1.686l-2.249.995-5.291-.005c-4.5-.004-5.786-.1-8.6-.646-4.972-.965-10.425-.921-15.61.125-3.325.67-4.435.775-8.334.782-4.172.008-4.66-.043-6.747-.707-1.237-.394-2.487-.692-2.778-.662-.49.051-.542-.154-.703-2.723-.346-5.519.402-13.466 1.78-18.918 3.325-13.16 10.597-24.919 20.859-33.729 5.18-4.446 13.194-9.212 18.942-11.264 1.092-.39 2.442-.877 3.002-1.082 1.852-.68 5.932-1.655 9.494-2.268 3.086-.532 4.376-.603 10.655-.591 7.232.014 8.628.15 14.685 1.428 3.636.768 9.906 3.046 13.626 4.952 7.096 3.635 10.966 6.343 16.196 11.333 8.97 8.557 15.598 20.126 18.31 31.958 1.236 5.394 1.456 7.523 1.467 14.212l.01 6.482-1.845.926c-1.623.815-2.116.934-4.1.987-1.414.037-2.613-.076-3.208-.303z"/></svg>