<?xml version="1.0" encoding="UTF-8" standalone="no"?>
<!-- Created with Inkscape (http://www.inkscape.org/) -->

<svg
   xmlns:dc="http://purl.org/dc/elements/1.1/"
   xmlns:cc="http://creativecommons.org/ns#"
   xmlns:rdf="http://www.w3.org/1999/02/22-rdf-syntax-ns#"
   xmlns:svg="http://www.w3.org/2000/svg"
   xmlns="http://www.w3.org/2000/svg"
   xmlns:sodipodi="http://sodipodi.sourceforge.net/DTD/sodipodi-0.dtd"
   xmlns:inkscape="http://www.inkscape.org/namespaces/inkscape"
   width="129.10025mm"
   height="129.37975mm"
   viewBox="0 0 129.10025 129.37975"
   version="1.1"
   id="svg8"
   inkscape:version="0.92.3 (2405546, 2018-03-11)"
   sodipodi:docname="site logo bright split no text.svg">
  <defs
     id="defs2" />
  <sodipodi:namedview
     id="base"
     pagecolor="#ffffff"
     bordercolor="#666666"
     borderopacity="1.0"
     inkscape:pageopacity="0.0"
     inkscape:pageshadow="2"
     inkscape:zoom="2"
     inkscape:cx="233.33766"
     inkscape:cy="162.03435"
     inkscape:document-units="mm"
     inkscape:current-layer="layer1"
     showgrid="false"
     inkscape:window-width="1440"
     inkscape:window-height="810"
     inkscape:window-x="27"
     inkscape:window-y="23"
     inkscape:window-maximized="0"
     fit-margin-top="0"
     fit-margin-left="0"
     fit-margin-right="0"
     fit-margin-bottom="0" />
  <metadata
     id="metadata5">
    <rdf:RDF>
      <cc:Work
         rdf:about="">
        <dc:format>image/svg+xml</dc:format>
        <dc:type
           rdf:resource="http://purl.org/dc/dcmitype/StillImage" />
        <dc:title />
      </cc:Work>
    </rdf:RDF>
  </metadata>
  <g
     inkscape:label="Layer 1"
     inkscape:groupmode="layer"
     id="layer1"
     transform="translate(-35.592845,-135.48114)">
    <g
       id="g75"
       transform="translate(-4.6302104,42.42783)">
      <path
         style="fill:#fffff7;fill-opacity:1;stroke-width:0.24499168"
         d="m 114.25818,221.93159 c 13.09147,-2.0947 24.60065,-7.63404 34.21596,-16.46805 2.07794,-1.90911 4.16206,-4.18351 7.31907,-7.98734 1.94827,-2.34745 5.57611,-8.11331 6.75483,-10.73571 0.99886,-2.22226 1.6391,-3.60536 1.93013,-4.16956 0.41049,-0.79588 2.21143,-6.23343 2.79887,-8.45065 2.69079,-10.15603 2.72933,-21.82251 0.10684,-32.34694 -0.41678,-1.67263 -1.71746,-5.76093 -2.18296,-6.86149 -0.17102,-0.40433 -0.48174,-1.18956 -0.6905,-1.74494 -1.48277,-3.94498 -5.14924,-10.36087 -8.24541,-14.42852 -4.48005,-5.88575 -10.02073,-11.09451 -15.79926,-14.85274 -0.53882,-0.35045 -1.68746,-1.09848 -2.5525,-1.66226 -5.04285,-3.286681 -13.30158,-6.500846 -20.47096,-7.966955 -5.56783,-1.138598 -13.99709,-1.533087 -19.349526,-0.905551 -4.881651,0.57234 -12.606956,2.368926 -15.407599,3.583172 -0.416803,0.180708 -1.639574,0.680691 -2.717269,1.111069 -2.397542,0.957462 -5.945018,2.718335 -7.592851,3.768885 -0.673559,0.42943 -1.792508,1.12116 -2.48655,1.53721 -3.628532,2.17513 -9.800979,7.41531 -12.693867,10.77664 -0.906444,1.05321 -2.083875,2.41117 -2.616517,3.01768 -2.630512,2.99529 -6.987883,10.30218 -9.352583,15.68337 -3.299879,7.50931 -5.388725,19.16013 -4.942671,27.56843 1.033555,19.48293 9.730614,36.49296 24.74427,48.39574 9.347035,7.41029 20.393368,11.91288 33.065637,13.47782 2.723376,0.33632 13.334896,0.1136 16.165416,-0.33931 z"
         id="path931"
         inkscape:connector-curvature="0" />
      <path
         style="fill:#2e94df;stroke-width:0.26458332"
         d="m 98.954169,222.39294 c -8.278736,-0.87216 -15.684294,-2.9738 -22.621875,-6.41992 -3.819607,-1.89732 -4.944007,-2.56831 -9.361046,-5.58626 -1.946696,-1.33009 -4.961691,-3.95735 -7.871373,-6.85911 -6.698863,-6.68062 -11.555928,-14.31882 -14.986666,-23.56798 -1.463104,-3.94448 -1.964476,-5.72168 -2.724301,-9.65676 -0.573101,-2.96807 -0.639125,-4.10157 -0.238906,-4.10157 0.14953,0 1.548514,0.44647 3.108854,0.99216 2.652565,0.92767 3.026167,0.99025 5.747396,0.96266 1.839502,-0.0187 4.833115,-0.33504 8.135718,-0.85987 6.416172,-1.01961 10.450441,-1.0968 15.015324,-0.28727 5.959782,1.05689 6.476142,1.10438 10.577467,0.97283 3.825298,-0.1227 4.305046,-0.19733 6.99652,-1.08841 3.338529,-1.10531 3.89709,-1.15275 4.928087,-0.41862 1.710629,1.21807 4.918382,2.40763 8.639682,3.20391 2.0707,0.44308 3.95858,0.58833 9.37797,0.7215 9.02883,0.22186 8.93288,0.13547 6.55759,5.90452 -0.73778,1.79193 -1.52508,3.67477 -1.74953,4.18409 -0.22446,0.50932 -0.50254,1.52135 -0.61797,2.24896 -0.54558,3.43915 -0.90303,4.69263 -1.43619,5.0362 -0.49375,0.31819 -2.38161,0.87639 -6.16349,1.8224 -1.52938,0.38257 -1.75566,0.29495 -2.55106,-0.98776 l -0.46118,-0.74375 -6.26718,0.0526 -6.267175,0.0526 -0.167134,-0.76409 c -0.09192,-0.42026 -0.188082,-1.83566 -0.213683,-3.14534 -0.08237,-4.21349 -0.09603,-4.24455 -2.762867,-6.28129 -2.323475,-1.77452 -3.398247,-2.17504 -3.703306,-1.38008 -0.104177,0.27149 0.412432,0.96925 1.54075,2.08103 2.228234,2.19557 2.601379,3.09854 2.470026,5.97721 -0.08893,1.9489 -0.224279,2.47593 -1.014452,3.95007 -0.50151,0.93562 -1.243063,1.94397 -1.647896,2.24079 -0.94243,0.69098 -3.836155,0.88397 -6.295729,0.41989 -1.607122,-0.30324 -1.862288,-0.28802 -2.776276,0.16568 -1.497086,0.74314 -2.098249,2.09937 -2.097915,4.73295 2.64e-4,2.51025 0.561459,3.87925 1.984107,4.84054 0.7424,0.50164 1.133317,0.593 1.971249,0.46068 1.262865,-0.19943 1.702893,-0.53538 2.172391,-1.65857 0.362392,-0.86695 1.291825,-1.33361 2.065115,-1.03687 0.214008,0.0821 0.555676,0.54145 0.759262,1.02072 0.43843,1.03215 1.178335,1.81849 3.060573,3.25266 6.218004,4.73782 8.23605,6.69929 10.24763,9.96033 0.41698,0.676 1.50678,2.1929 2.42176,3.3709 1.67838,2.16084 2.67681,2.81188 3.31671,2.16269 0.23959,-0.24307 0.14365,-0.43884 -0.41625,-0.84936 -0.50235,-0.36832 -0.72761,-0.76981 -0.72761,-1.29682 0,-0.61557 -0.27287,-0.96492 -1.40957,-1.80465 -1.07796,-0.79633 -1.52259,-1.34295 -1.88993,-2.32345 -0.81104,-2.16479 -2.399645,-4.65816 -4.22178,-6.62624 -1.877296,-2.02765 -2.199108,-3.02115 -1.255279,-3.87531 0.621655,-0.56259 1.456471,-0.54877 4.543229,0.0752 5.31418,1.07422 14.7074,2.1189 19.84375,2.20695 3.27323,0.0561 2.73846,0.27032 9.67922,-3.87704 5.23722,-3.12942 5.68037,-3.56131 4.62979,-4.51207 -0.51494,-0.46601 -0.58511,-0.45871 -2.32675,0.24215 -4.85067,1.95198 -7.7786,2.61127 -11.58538,2.6087 -3.18809,-0.002 -4.97127,-0.37178 -5.88698,-1.2203 -0.84933,-0.78701 -0.74125,-1.35767 0.43333,-2.28796 0.70876,-0.56134 1.08211,-1.09968 1.20056,-1.73108 0.1167,-0.62204 0.44492,-1.10307 1.02188,-1.49759 2.22403,-1.52083 4.17071,-3.9536 4.14883,-5.18482 -0.005,-0.26046 -0.18322,-0.70468 -0.39687,-0.98715 -0.2315,-0.30606 -0.38846,-1.09773 -0.38846,-1.9592 0,-1.34235 0.0756,-1.51751 1.05833,-2.45237 0.58208,-0.55372 1.05833,-1.09146 1.05833,-1.19497 0,-0.10351 0.15842,-0.37617 0.35204,-0.60591 0.19362,-0.22974 0.57074,-1.00967 0.83805,-1.73317 0.2673,-0.72351 0.98078,-1.8546 1.58549,-2.51355 1.3246,-1.44339 2.25151,-2.9314 2.25151,-3.61447 0,-0.27602 -0.23813,-0.94615 -0.52917,-1.48917 -0.90744,-1.69308 -0.5945,-2.83479 0.78052,-2.84759 0.37108,-0.003 1.38906,-0.30791 2.26219,-0.67657 1.52151,-0.64243 1.93182,-0.68226 9.87151,-0.95834 8.52606,-0.29646 10.13859,-0.19829 14.33786,0.87286 0.50933,0.12992 1.30313,0.23688 1.764,0.23769 0.46088,7.9e-4 1.39514,0.24031 2.07613,0.53221 2.20366,0.9446 4.50201,1.14761 7.40122,0.65374 1.40792,-0.23983 2.61157,-0.38434 2.67477,-0.32114 0.3131,0.3131 -1.67232,8.52655 -2.89324,11.96896 -1.5496,4.36913 -4.41675,10.36346 -6.26437,13.09687 -0.45125,0.66759 -0.74937,1.1155 -2.02518,3.04271 -1.33006,2.00918 -8.25711,9.88814 -8.93418,10.16191 -0.14656,0.0593 -1.23244,0.95223 -2.41306,1.98438 -2.03333,1.77762 -7.26646,5.47891 -9.16403,6.48155 -8.36777,4.42138 -13.57038,6.27549 -21.67948,7.72614 -2.31573,0.41426 -4.43948,0.55823 -9.22591,0.6254 -3.41974,0.048 -6.693958,0.0371 -7.276041,-0.0242 z"
         id="path929"
         inkscape:connector-curvature="0" />
      <path
         style="fill:#ffffff;stroke-width:0.26458332"
         d="m 141.24112,193.75793 c 2.56915,-0.6919 5.72218,-1.09826 8.52168,-1.09826 2.90046,0 3.24369,-0.30155 3.08255,-2.70822 -0.0756,-1.12856 -1.7721,-2.12741 -3.5857,-2.11111 -1.51291,0.0136 -2.75252,0.44113 -6.64923,2.29332 -1.30969,0.62252 -3.08131,1.41432 -3.93695,1.75956 -1.83239,0.73936 -2.46546,1.63179 -1.60883,2.26796 0.59737,0.44363 1.27469,0.37823 4.17648,-0.40325 z"
         id="path927"
         inkscape:connector-curvature="0" />
      <path
         style="fill:#ffffff;stroke-width:0.26458332"
         d="m 85.196957,176.25508 c 0.795711,-0.30253 0.837039,-1.20707 0.07691,-1.68349 -0.352706,-0.22106 -0.587325,-0.1548 -1.075386,0.30371 -0.343342,0.32255 -0.750832,0.58646 -0.905537,0.58646 -0.384529,0 -0.911648,0.66914 -0.696555,0.88424 0.262906,0.2629 1.812422,0.20873 2.600563,-0.0909 z"
         id="path925"
         inkscape:connector-curvature="0" />
      <path
         style="fill:#ffffff;stroke-width:0.26458332"
         d="m 148.65323,169.95987 c 2.49158,-1.11821 1.78952,-1.2391 -7.63537,-1.31481 -8.13619,-0.0654 -9.63784,0.0401 -9.04278,0.63518 0.0975,0.0975 2.05412,0.38893 4.34799,0.64758 2.29388,0.25866 4.64693,0.52446 5.22902,0.59068 2.50238,0.28469 5.80009,0.0253 7.10114,-0.55863 z"
         id="path923"
         inkscape:connector-curvature="0" />
      <path
         style="fill:#2e94df;stroke-width:0.26458332"
         d="m 160.18035,165.0328 c -0.523,-0.19947 -1.34793,-0.56798 -1.83318,-0.81891 -0.48524,-0.25093 -1.6126,-0.72114 -2.50523,-1.04492 -0.89263,-0.32377 -2.44895,-1.12747 -3.45849,-1.786 -4.15108,-2.70778 -10.57938,-5.39626 -16.6522,-6.96435 -1.45521,-0.37576 -2.7437,-0.78015 -2.86331,-0.89866 -0.11962,-0.1185 -0.67241,-1.57015 -1.22843,-3.22589 -1.74505,-5.19652 -4.70907,-11.76707 -6.46577,-14.33313 -0.378,-0.55216 -0.68728,-1.07629 -0.68728,-1.16473 0,-0.1945 -1.20102,-1.84004 -3.21089,-4.39931 -2.8858,-3.67462 -7.97367,-8.00337 -12.48904,-10.62563 -1.56489,-0.9088 -2.11514,-1.87027 -1.37859,-2.40884 0.86624,-0.63342 3.19216,0.33633 4.75875,1.98406 0.84129,0.88486 1.21455,0.98252 1.96468,0.51406 0.85291,-0.53265 1.84822,-0.047 2.67099,1.30321 0.41861,0.68697 0.95678,1.46461 1.19592,1.72809 0.59151,0.65168 1.76018,0.48719 2.15193,-0.30289 0.16842,-0.33967 0.43295,-0.74432 0.58786,-0.89922 0.42576,-0.42577 1.53007,0.41258 2.15371,1.63502 0.6652,1.30391 0.97888,1.49741 1.56604,0.96604 0.25695,-0.23254 0.57687,-0.41948 0.71093,-0.41543 0.3472,0.0105 2.02854,1.31646 3.71198,2.88328 1.43187,1.33266 1.95573,1.61356 1.95573,1.04868 0,-0.26814 -1.50529,-2.24218 -2.70127,-3.54245 -0.2677,-0.29104 -1.66676,-2.03686 -3.10903,-3.87959 -5.95096,-7.60333 -8.01444,-9.10023 -13.77733,-9.99437 -2.21581,-0.34379 -2.45499,-0.48502 -2.32904,-1.37521 0.0807,-0.57051 0.24433,-0.63752 1.85105,-0.75812 1.52712,-0.11462 1.83887,-0.22946 2.33431,-0.8599 0.9403,-1.19651 1.84943,-0.99746 3.3232,0.72761 1.35525,1.58633 2.08903,1.82075 2.89874,0.92604 0.92264,-1.01951 2.60735,-0.52436 3.73057,1.09644 0.76047,1.09737 1.17373,1.24949 1.69338,0.62335 0.18116,-0.21828 0.54953,-0.39687 0.81861,-0.39687 0.90817,0 3.54016,1.34273 4.53881,2.31552 0.77185,0.75186 1.06226,0.89563 1.30956,0.64834 0.40182,-0.40183 -0.28547,-1.87566 -2.30404,-4.94083 -2.34603,-3.56241 -4.89516,-5.90517 -8.33169,-7.65718 -3.61021,-1.840557 -9.57338,-2.000796 -12.76857,-0.34311 -2.13418,1.10722 -4.41933,3.37027 -5.50346,5.45023 -0.31175,0.59809 -0.70362,1.08603 -0.87083,1.0843 -0.16721,-0.002 -0.70532,-0.73359 -1.19581,-1.62636 -1.685992,-3.06879 -4.110316,-4.87977 -7.398473,-5.526679 -4.323374,-0.850572 -8.964276,0.810449 -11.493082,4.113479 -0.557056,0.7276 -1.542671,2.39996 -2.190258,3.71636 -1.642099,3.33803 -1.554662,4.61042 0.180978,2.63364 1.037421,-1.18156 1.683681,-1.18156 2.380816,0 0.300508,0.50932 0.669015,0.92604 0.818907,0.92604 0.149889,0 0.733784,-0.41672 1.297543,-0.92604 1.173702,-1.06037 1.734283,-1.14329 2.68319,-0.39688 0.926041,0.72843 1.294804,0.67156 2.573636,-0.39687 1.314466,-1.09821 2.150946,-1.16687 3.223252,-0.26459 0.550995,0.46363 1.101752,0.66146 1.841527,0.66146 1.754735,0 2.641092,0.80175 2.068713,1.87125 -0.225052,0.42051 -0.564552,0.51 -1.934832,0.51 -5.087953,0 -10.15706,1.87159 -13.429033,4.95821 -1.003085,0.94626 -1.823794,1.83769 -1.823794,1.98096 0,0.14327 -0.303347,0.62099 -0.674105,1.06161 -1.741797,2.07001 -3.280283,6.7083 -4.059865,12.23985 -0.449876,3.19211 -0.657579,8.50599 -0.34014,8.70218 0.456155,0.28192 0.840303,-0.7475 0.846587,-2.26864 0.0034,-0.81258 0.221338,-1.88128 0.516232,-2.53094 0.427373,-0.94152 0.633441,-1.12448 1.266536,-1.12448 0.415864,0 0.987232,0.17481 1.269706,0.38846 0.282475,0.21365 0.72195,0.39225 0.976612,0.39688 0.401537,0.007 0.463539,-0.26387 0.466921,-2.04211 0.006,-3.1254 0.892066,-4.3811 2.337511,-3.31244 0.74983,0.55438 0.790557,0.55739 1.213819,0.0897 0.240876,-0.26617 0.627785,-1.51776 0.859798,-2.78132 0.232013,-1.26356 0.626065,-2.54958 0.875673,-2.85784 0.417766,-0.51592 0.522972,-0.53182 1.323882,-0.20007 0.810006,0.33552 0.903936,0.31854 1.361067,-0.24599 0.278776,-0.34428 0.491016,-1.02573 0.491016,-1.57653 0,-1.94332 1.211805,-2.60336 3.356094,-1.82797 0.845437,0.30571 0.924386,0.27565 2.003161,-0.76285 0.61767,-0.59461 1.383101,-1.21407 1.700956,-1.37659 0.934275,-0.47769 3.258539,-0.32913 3.258539,0.20828 0,0.10041 -0.88606,0.63241 -1.969021,1.18221 -4.61223,2.34159 -6.500376,6.45211 -6.49606,14.14202 0.0024,4.14346 0.280839,7.19075 0.657209,7.19075 0.338664,0 0.928706,-1.66952 0.928706,-2.62777 0,-1.40552 1.32525,-2.16228 2.116666,-1.20868 0.181158,0.21828 0.529112,0.39687 0.773229,0.39687 0.87793,0 1.078855,-0.57976 1.078855,-3.11302 0,-1.36291 0.123251,-2.70832 0.273891,-2.98979 0.31283,-0.58453 1.325534,-0.67404 2.106671,-0.18622 0.786175,0.49098 1.307116,-0.20322 1.75465,-2.33823 0.518634,-2.47419 0.910844,-3.01441 2.188494,-3.01441 0.56091,0 1.15609,-0.16418 1.32263,-0.36484 0.16653,-0.20066 0.37557,-1.36152 0.46452,-2.57969 0.18491,-2.53234 0.53913,-3.14088 1.82827,-3.14088 1.11753,0 2.86533,1.3501 6.33275,4.89178 2.98739,3.05137 5.18552,6.14715 7.18924,10.12508 2.16864,4.30535 3.93945,10.33805 4.23309,14.4211 l 0.16672,2.31818 -1.0549,1.0035 c -0.96075,0.91394 -1.32442,1.05871 -4.07473,1.62207 -3.13881,0.64295 -10.47472,2.74551 -12.85908,3.68557 -0.75491,0.29764 -2.37202,1.00724 -3.59358,1.57688 -1.44322,0.67302 -3.371617,1.27794 -5.506595,1.72738 -1.938457,0.40807 -4.207682,1.09961 -5.534541,1.68662 l -2.248959,0.99496 -5.291666,-0.005 c -4.50069,-0.004 -5.786028,-0.10088 -8.598959,-0.64643 -4.973079,-0.96451 -10.426173,-0.9209 -15.610416,0.12481 -3.325699,0.67083 -4.435279,0.77501 -8.334375,0.78253 -4.17218,0.008 -4.660786,-0.0432 -6.746875,-0.70744 -1.236927,-0.39386 -2.487084,-0.69152 -2.778125,-0.66146 -0.489395,0.0506 -0.542237,-0.15414 -0.703075,-2.72347 -0.345474,-5.51887 0.402079,-13.46584 1.779551,-18.9177 3.325058,-13.16018 10.597395,-24.9192 20.859459,-33.72873 5.179787,-4.44662 13.193813,-9.212313 18.94219,-11.264332 1.091406,-0.389601 2.442342,-0.876652 3.002081,-1.082333 1.851356,-0.680294 5.931922,-1.655202 9.49375,-2.268199 3.086294,-0.531156 4.376423,-0.602668 10.655215,-0.590624 7.23151,0.01386 8.62758,0.149651 14.68437,1.428191 3.63693,0.767729 9.90644,3.046 13.62604,4.951556 7.09674,3.635661 10.96645,6.343391 16.19692,11.333351 8.9691,8.55669 15.59728,20.12574 18.30927,31.95768 1.23646,5.39449 1.45617,7.52333 1.46682,14.21239 l 0.0103,6.4823 -1.84469,0.92604 c -1.62302,0.81476 -2.11584,0.93326 -4.10104,0.98612 -1.41282,0.0376 -2.61184,-0.0755 -3.20726,-0.30258 z"
         id="path921"
         inkscape:connector-curvature="0" />
      <path
         style="fill:#ffffff;fill-opacity:1;stroke-width:0.26458332"
         d="m 187.44119,184.61387 c 0.71379,-2.63547 0.42785,-3.15424 -0.92687,-1.68152 -0.70219,0.76336 -0.90911,1.21667 -0.90911,1.99165 0,1.05106 0.70604,2.38277 1.06209,2.00328 0.1139,-0.1214 0.46215,-1.16244 0.77389,-2.31341 z"
         id="path899"
         inkscape:connector-curvature="0" />
    </g>
  </g>
</svg>
